<svg xmlns="http://www.w3.org/2000/svg" width="36.911" height="36" viewBox="0 0 36.911 36">
  <path id="gitHub_icon" d="M26.453,8.345a18.458,18.458,0,0,0-5.832,35.968c.923.169,1.259-.4,1.259-.891,0-.437-.015-1.6-.025-3.138C16.723,41.4,15.64,37.81,15.64,37.81a4.887,4.887,0,0,0-2.05-2.7c-1.676-1.146.127-1.123.127-1.123a3.878,3.878,0,0,1,2.827,1.9,3.931,3.931,0,0,0,5.371,1.534,3.942,3.942,0,0,1,1.172-2.467c-4.1-.465-8.407-2.05-8.407-9.121a7.136,7.136,0,0,1,1.9-4.953A6.639,6.639,0,0,1,16.76,16s1.55-.5,5.075,1.892a17.492,17.492,0,0,1,9.241,0C34.6,15.5,36.147,16,36.147,16a6.629,6.629,0,0,1,.184,4.884,7.124,7.124,0,0,1,1.9,4.953c0,7.09-4.316,8.65-8.428,9.107a4.4,4.4,0,0,1,1.253,3.418c0,2.467-.022,4.457-.022,5.062,0,.495.332,1.069,1.269.889A18.458,18.458,0,0,0,26.453,8.345" transform="translate(-8 -8.345)" fill="#333" fill-rule="evenodd"/>
</svg>
