<?xml version="1.0" encoding="UTF-8"?>
<svg id="logo_default" data-name="logo_default" xmlns="http://www.w3.org/2000/svg" viewBox="0 0 172.03 36">
  <g id="Layer_1-2" data-name="Layer 1">
    <g>
      <polygon points="11.52 0 0 0 0 36 23.04 36 23.04 26.78 11.52 26.78 11.52 0"/>
      <rect x="23.81" width="11.52" height="36"/>
      <polygon points="63.84 0 59.38 18.34 58.94 18.34 54.48 0 39.46 0 37.25 36 49.29 36 49.97 18.53 50.3 18.53 54.77 36 63.55 36 67.97 18.53 68.35 18.53 69.02 36 81.07 36 78.91 0 63.84 0"/>
      <path d="M113.42,0h-12.48l-5.62,11.9c-.16,.35-.29,.76-.38,1.22-.1,.46-.16,.98-.19,1.56h-.24V0h-11.52V36h11.52v-15.65h.24c.03,.58,.1,1.09,.19,1.54,.1,.45,.22,.85,.38,1.2l5.9,12.91h12.48l-8.93-18.34L113.42,0Z"/>
      <rect x="114.77" width="11.52" height="36"/>
      <polygon points="169.87 0 154.8 0 150.33 18.34 149.9 18.34 145.44 0 130.41 0 128.21 36 140.25 36 140.93 18.53 141.26 18.53 145.73 36 154.51 36 158.93 18.53 159.31 18.53 159.98 36 172.03 36 169.87 0"/>
    </g>
  </g>
</svg>