<?xml version="1.0" encoding="UTF-8"?>
<svg id="Layer_2" data-name="Layer 2" xmlns="http://www.w3.org/2000/svg" viewBox="0 0 68.85 83.71">
  <g id="Layer_1-2" data-name="Layer 1">
    <g>
      <path d="M41.85,14.93c-14.89,0-27,12.11-27,27s12.11,27,27,27,27-12.11,27-27-12.11-27-27-27Zm0,48V20.93c11.58,0,21,9.42,21,21s-9.42,21-21,21Z"/>
      <rect y="38.85" width="11.71" height="6"/>
      <polygon points="18.99 20.99 21.11 18.87 12.84 10.59 10.71 12.71 8.59 14.84 16.87 23.11 18.99 20.99"/>
      <polygon points="16.87 61.59 8.59 69.87 10.71 71.99 12.84 74.11 21.11 65.84 18.99 63.71 16.87 61.59"/>
      <rect x="38.85" width="6" height="11.71"/>
      <rect x="38.85" y="72" width="6" height="11.71"/>
    </g>
  </g>
</svg>