<svg xmlns="http://www.w3.org/2000/svg" width="34.56" height="36" viewBox="0 0 34.56 36">
  <path id="notion_icon" d="M32.152,9.082l-19.98,1.47A2.2,2.2,0,0,0,10,13V34.838a4.7,4.7,0,0,0,1.192,2.94l4.7,6.089c.771.981,1.473,1.19,2.946,1.12l23.2-1.4C44,43.448,44.56,42.538,44.56,41V16.431c0-.8-.315-1.026-1.244-1.7l-.159-.116-6.378-4.479C35.237,9.013,34.606,8.872,32.152,9.082ZM19.36,16.028c-1.894.128-2.325.157-3.4-.717l-2.736-2.17c-.279-.281-.139-.63.561-.7l19.208-1.4a3.961,3.961,0,0,1,3.084.91l3.295,2.38c.14.07.49.489.069.489L19.6,16.012Zm-2.21,24.76V19.931c0-.91.28-1.33,1.121-1.4L41.054,17.2c.773-.07,1.123.42,1.123,1.329V39.247c0,.911-.141,1.681-1.4,1.751l-21.8,1.261C17.711,42.328,17.15,41.909,17.15,40.788ZM38.672,21.05c.14.631,0,1.26-.632,1.331l-1.05.209v15.4a5.476,5.476,0,0,1-2.454.77c-1.122,0-1.4-.35-2.243-1.4L25.422,26.58V37.008l2.174.49s0,1.259-1.754,1.259l-4.836.28a.9.9,0,0,1,.49-1.12l1.262-.349V23.781l-1.752-.14A1.31,1.31,0,0,1,22.2,22.03l5.188-.349L34.536,32.6V22.94l-1.823-.209a1.185,1.185,0,0,1,1.121-1.4Z" transform="translate(-10 -9)" fill="#333" fill-rule="evenodd"/>
</svg>
